<svg width="53" height="53" viewBox="0 0 53 53" fill="none" xmlns="http://www.w3.org/2000/svg">
<mask id="mask0_4_170" style="mask-type:alpha" maskUnits="userSpaceOnUse" x="0" y="0" width="53" height="53">
<rect width="52.9524" height="52.9524" fill="#D9D9D9"/>
</mask>
<g mask="url(#mask0_4_170)">
<path d="M8.82539 46.3332C7.6119 46.3332 6.57307 45.9012 5.70892 45.037C4.84477 44.1728 4.41269 43.134 4.41269 41.9205V17.6507C4.41269 16.4372 4.84477 15.3984 5.70892 14.5342C6.57307 13.6701 7.6119 13.238 8.82539 13.238H17.6508V8.8253C17.6508 7.6118 18.0829 6.57298 18.947 5.70883C19.8112 4.84467 20.85 4.4126 22.0635 4.4126H30.8889C32.1024 4.4126 33.1412 4.84467 34.0053 5.70883C34.8695 6.57298 35.3016 7.6118 35.3016 8.8253V13.238H44.127C45.3405 13.238 46.3793 13.6701 47.2434 14.5342C48.1076 15.3984 48.5397 16.4372 48.5397 17.6507V41.9205C48.5397 43.134 48.1076 44.1728 47.2434 45.037C46.3793 45.9012 45.3405 46.3332 44.127 46.3332H8.82539ZM22.0635 13.238H30.8889V8.8253H22.0635V13.238ZM44.127 33.0951H33.0952V37.5078H19.8571V33.0951H8.82539V41.9205H44.127V33.0951ZM24.2698 33.0951H28.6825V28.6824H24.2698V33.0951ZM8.82539 28.6824H19.8571V24.2697H33.0952V28.6824H44.127V17.6507H8.82539V28.6824Z" fill="white"/>
</g>
</svg>
