<svg width="57" height="56" viewBox="0 0 57 56" fill="none" xmlns="http://www.w3.org/2000/svg">
<mask id="mask0_2_60" style="mask-type:alpha" maskUnits="userSpaceOnUse" x="0" y="0" width="57" height="56">
<rect x="0.518951" width="55.9621" height="55.9621" fill="#D9D9D9"/>
</mask>
<g mask="url(#mask0_2_60)">
<path d="M24.6526 39.6398L37.827 26.4654L34.446 23.0844L24.5943 32.936L19.6976 28.0393L16.3749 31.3621L24.6526 39.6398ZM15.6754 46.6351C12.1389 46.6351 9.1173 45.4109 6.61066 42.9626C4.10403 40.5142 2.85071 37.5218 2.85071 33.9853C2.85071 30.954 3.76398 28.2531 5.59052 25.8825C7.41706 23.5119 9.80711 21.9962 12.7607 21.3356C13.7322 17.7602 15.6754 14.8649 18.59 12.6498C21.5047 10.4346 24.8081 9.32703 28.5 9.32703C33.0469 9.32703 36.904 10.9107 40.0713 14.078C43.2386 17.2453 44.8223 21.1024 44.8223 25.6493C47.5038 25.9602 49.7287 27.1164 51.4969 29.1178C53.2652 31.1192 54.1493 33.4607 54.1493 36.1422C54.1493 39.0569 53.1291 41.5344 51.0889 43.5747C49.0486 45.6149 46.5711 46.6351 43.6564 46.6351H15.6754ZM15.6754 41.9716H43.6564C45.2886 41.9716 46.6682 41.4081 47.7953 40.2811C48.9223 39.154 49.4858 37.7744 49.4858 36.1422C49.4858 34.51 48.9223 33.1303 47.7953 32.0033C46.6682 30.8763 45.2886 30.3128 43.6564 30.3128H40.1588V25.6493C40.1588 22.4237 39.022 19.6742 36.7486 17.4007C34.4751 15.1273 31.7256 13.9905 28.5 13.9905C25.2744 13.9905 22.5249 15.1273 20.2514 17.4007C17.978 19.6742 16.8412 22.4237 16.8412 25.6493H15.6754C13.4213 25.6493 11.4976 26.446 9.90426 28.0393C8.3109 29.6327 7.51421 31.5564 7.51421 33.8104C7.51421 36.0645 8.3109 37.9882 9.90426 39.5815C11.4976 41.1749 13.4213 41.9716 15.6754 41.9716Z" fill="#EB0909"/>
</g>
</svg>
