<svg width="20" height="21" viewBox="0 0 20 21" fill="none" xmlns="http://www.w3.org/2000/svg">
<mask id="mask0_7_214" style="mask-type:alpha" maskUnits="userSpaceOnUse" x="0" y="0" width="20" height="21">
<rect y="0.5" width="20" height="20" fill="#D9D9D9"/>
</mask>
<g mask="url(#mask0_7_214)">
<path d="M8.33333 13.8332H11.6667C11.9028 13.8332 12.1007 13.7533 12.2604 13.5936C12.4201 13.4339 12.5 13.2359 12.5 12.9998V11.3332H10.8333V12.1665H9.16667V8.83317H10.8333V9.6665H12.5V7.99984C12.5 7.76373 12.4201 7.56581 12.2604 7.40609C12.1007 7.24636 11.9028 7.1665 11.6667 7.1665H8.33333C8.09722 7.1665 7.89931 7.24636 7.73958 7.40609C7.57986 7.56581 7.5 7.76373 7.5 7.99984V12.9998C7.5 13.2359 7.57986 13.4339 7.73958 13.5936C7.89931 13.7533 8.09722 13.8332 8.33333 13.8332ZM10 18.8332C8.84722 18.8332 7.76389 18.6144 6.75 18.1769C5.73611 17.7394 4.85417 17.1457 4.10417 16.3957C3.35417 15.6457 2.76042 14.7637 2.32292 13.7498C1.88542 12.7359 1.66667 11.6526 1.66667 10.4998C1.66667 9.34706 1.88542 8.26373 2.32292 7.24984C2.76042 6.23595 3.35417 5.354 4.10417 4.604C4.85417 3.854 5.73611 3.26025 6.75 2.82275C7.76389 2.38525 8.84722 2.1665 10 2.1665C11.1528 2.1665 12.2361 2.38525 13.25 2.82275C14.2639 3.26025 15.1458 3.854 15.8958 4.604C16.6458 5.354 17.2396 6.23595 17.6771 7.24984C18.1146 8.26373 18.3333 9.34706 18.3333 10.4998C18.3333 11.6526 18.1146 12.7359 17.6771 13.7498C17.2396 14.7637 16.6458 15.6457 15.8958 16.3957C15.1458 17.1457 14.2639 17.7394 13.25 18.1769C12.2361 18.6144 11.1528 18.8332 10 18.8332ZM10 17.1665C11.8611 17.1665 13.4375 16.5207 14.7292 15.229C16.0208 13.9373 16.6667 12.3609 16.6667 10.4998C16.6667 8.63873 16.0208 7.06234 14.7292 5.77067C13.4375 4.479 11.8611 3.83317 10 3.83317C8.13889 3.83317 6.5625 4.479 5.27083 5.77067C3.97917 7.06234 3.33333 8.63873 3.33333 10.4998C3.33333 12.3609 3.97917 13.9373 5.27083 15.229C6.5625 16.5207 8.13889 17.1665 10 17.1665Z" fill="white"/>
</g>
</svg>
