<svg width="45" height="45" viewBox="0 0 45 45" fill="none" xmlns="http://www.w3.org/2000/svg">
<mask id="mask0_1_26" style="mask-type:alpha" maskUnits="userSpaceOnUse" x="0" y="0" width="45" height="45">
<rect width="45" height="45" fill="#D9D9D9"/>
</mask>
<g mask="url(#mask0_1_26)">
<path d="M30.9375 18.2812C30.1563 18.2812 29.4922 18.0078 28.9453 17.4609C28.3984 16.9141 28.125 16.25 28.125 15.4688C28.125 14.6875 28.3984 14.0234 28.9453 13.4766C29.4922 12.9297 30.1563 12.6562 30.9375 12.6562C31.7188 12.6562 32.3828 12.9297 32.9297 13.4766C33.4766 14.0234 33.75 14.6875 33.75 15.4688C33.75 16.25 33.4766 16.9141 32.9297 17.4609C32.3828 18.0078 31.7188 18.2812 30.9375 18.2812ZM14.0625 18.2812C13.2813 18.2812 12.6172 18.0078 12.0703 17.4609C11.5234 16.9141 11.25 16.25 11.25 15.4688C11.25 14.6875 11.5234 14.0234 12.0703 13.4766C12.6172 12.9297 13.2813 12.6562 14.0625 12.6562C14.8438 12.6562 15.5078 12.9297 16.0547 13.4766C16.6016 14.0234 16.875 14.6875 16.875 15.4688C16.875 16.25 16.6016 16.9141 16.0547 17.4609C15.5078 18.0078 14.8438 18.2812 14.0625 18.2812ZM22.5 23.4375C21.7188 23.4375 21.0547 23.1641 20.5078 22.6172C19.9609 22.0703 19.6875 21.4062 19.6875 20.625C19.6875 19.8438 19.9609 19.1797 20.5078 18.6328C21.0547 18.0859 21.7188 17.8125 22.5 17.8125C23.2813 17.8125 23.9453 18.0859 24.4922 18.6328C25.0391 19.1797 25.3125 19.8438 25.3125 20.625C25.3125 21.4062 25.0391 22.0703 24.4922 22.6172C23.9453 23.1641 23.2813 23.4375 22.5 23.4375ZM22.5 13.125C21.7188 13.125 21.0547 12.8516 20.5078 12.3047C19.9609 11.7578 19.6875 11.0938 19.6875 10.3125C19.6875 9.53125 19.9609 8.86719 20.5078 8.32031C21.0547 7.77344 21.7188 7.5 22.5 7.5C23.2813 7.5 23.9453 7.77344 24.4922 8.32031C25.0391 8.86719 25.3125 9.53125 25.3125 10.3125C25.3125 11.0938 25.0391 11.7578 24.4922 12.3047C23.9453 12.8516 23.2813 13.125 22.5 13.125ZM22.5 37.5C21.875 37.5 21.2422 37.4531 20.6016 37.3594C19.9609 37.2656 19.3438 37.1406 18.75 36.9844V30.2813C18.75 29.1875 19.1172 28.2422 19.8516 27.4453C20.5859 26.6484 21.4688 26.25 22.5 26.25C23.5313 26.25 24.4141 26.6484 25.1484 27.4453C25.8828 28.2422 26.25 29.1875 26.25 30.2813V36.9844C25.6563 37.1406 25.0391 37.2656 24.3984 37.3594C23.7578 37.4531 23.125 37.5 22.5 37.5ZM15.9375 36C15.3125 35.75 14.7109 35.4688 14.1328 35.1562C13.5547 34.8438 13 34.5 12.4688 34.125C11.5938 33.5 10.8984 32.6875 10.3828 31.6875C9.86719 30.6875 9.60938 29.625 9.60938 28.5C9.60938 27.6875 9.52344 26.9297 9.35157 26.2266C9.17969 25.5234 8.875 24.8594 8.4375 24.2344C8.125 23.8281 7.53907 23.2109 6.67969 22.3828C5.82032 21.5547 5.03125 20.7813 4.3125 20.0625C3.96875 19.7188 3.79688 19.2812 3.79688 18.75C3.79688 18.2188 3.96875 17.7812 4.3125 17.4375C4.65625 17.0938 5.09375 16.9219 5.625 16.9219C6.15625 16.9219 6.59375 17.0938 6.9375 17.4375L14.1094 24.2344C14.7344 24.7969 15.1953 25.4609 15.4922 26.2266C15.7891 26.9922 15.9375 27.7812 15.9375 28.5938V36ZM29.0625 36V28.5938C29.0625 27.7812 29.2188 26.9844 29.5313 26.2031C29.8438 25.4219 30.2969 24.7656 30.8906 24.2344L38.0625 17.4375C38.4375 17.0938 38.8828 16.9219 39.3984 16.9219C39.9141 16.9219 40.3438 17.0938 40.6875 17.4375C41.0313 17.7812 41.2031 18.2188 41.2031 18.75C41.2031 19.2812 41.0313 19.7188 40.6875 20.0625C39.9688 20.7813 39.1797 21.5469 38.3203 22.3594C37.4609 23.1719 36.875 23.7969 36.5625 24.2344C36.125 24.8594 35.8203 25.5234 35.6484 26.2266C35.4766 26.9297 35.3906 27.6875 35.3906 28.5C35.3906 29.625 35.1328 30.6953 34.6172 31.7109C34.1016 32.7266 33.3906 33.5469 32.4844 34.1719C31.9844 34.5156 31.4453 34.8438 30.8672 35.1562C30.2891 35.4688 29.6875 35.75 29.0625 36Z" fill="#EB0909"/>
</g>
</svg>
