<svg width="57" height="56" viewBox="0 0 57 56" fill="none" xmlns="http://www.w3.org/2000/svg">
<mask id="mask0_2_66" style="mask-type:alpha" maskUnits="userSpaceOnUse" x="0" y="0" width="57" height="56">
<rect x="0.518982" width="55.9621" height="55.9621" fill="#D9D9D9"/>
</mask>
<g mask="url(#mask0_2_66)">
<path d="M16.8412 39.6398H26.1683V30.3128H16.8412V39.6398ZM30.8318 39.6398H40.1588V30.3128H30.8318V39.6398ZM16.8412 25.6493H26.1683V16.3223H16.8412V25.6493ZM30.8318 25.6493H40.1588V16.3223H30.8318V25.6493ZM12.1777 48.9668C10.8953 48.9668 9.7974 48.5102 8.88413 47.5969C7.97086 46.6836 7.51422 45.5858 7.51422 44.3033V11.6587C7.51422 10.3763 7.97086 9.27841 8.88413 8.36514C9.7974 7.45187 10.8953 6.99524 12.1777 6.99524H44.8223C46.1047 6.99524 47.2026 7.45187 48.1159 8.36514C49.0292 9.27841 49.4858 10.3763 49.4858 11.6587V44.3033C49.4858 45.5858 49.0292 46.6836 48.1159 47.5969C47.2026 48.5102 46.1047 48.9668 44.8223 48.9668H12.1777ZM12.1777 44.3033H44.8223V11.6587H12.1777V44.3033Z" fill="#EB0909"/>
</g>
</svg>
