<svg width="57" height="56" viewBox="0 0 57 56" fill="none" xmlns="http://www.w3.org/2000/svg">
<mask id="mask0_2_72" style="mask-type:alpha" maskUnits="userSpaceOnUse" x="0" y="0" width="57" height="56">
<rect x="0.518921" width="55.9621" height="55.9621" fill="#D9D9D9"/>
</mask>
<g mask="url(#mask0_2_72)">
<path d="M26.1682 45.2943V29.3217L12.1777 21.2189V37.1914L26.1682 45.2943ZM30.8317 45.2943L44.8222 37.1914V21.2189L30.8317 29.3217V45.2943ZM28.4999 25.2995L42.3156 17.3132L28.4999 9.32696L14.6843 17.3132L28.4999 25.2995ZM9.84591 41.272C9.10753 40.8445 8.5343 40.281 8.12625 39.5815C7.71819 38.8819 7.51416 38.1047 7.51416 37.2497V18.7123C7.51416 17.8573 7.71819 17.08 8.12625 16.3805C8.5343 15.681 9.10753 15.1175 9.84591 14.69L26.1682 5.30468C26.9066 4.8772 27.6838 4.66345 28.4999 4.66345C29.3161 4.66345 30.0933 4.8772 30.8317 5.30468L47.154 14.69C47.8924 15.1175 48.4656 15.681 48.8736 16.3805C49.2817 17.08 49.4857 17.8573 49.4857 18.7123V37.2497C49.4857 38.1047 49.2817 38.8819 48.8736 39.5815C48.4656 40.281 47.8924 40.8445 47.154 41.272L30.8317 50.6573C30.0933 51.0848 29.3161 51.2985 28.4999 51.2985C27.6838 51.2985 26.9066 51.0848 26.1682 50.6573L9.84591 41.272Z" fill="#EB0909"/>
</g>
</svg>
