<svg width="56" height="56" viewBox="0 0 56 56" fill="none" xmlns="http://www.w3.org/2000/svg">
<mask id="mask0_2_54" style="mask-type:alpha" maskUnits="userSpaceOnUse" x="0" y="0" width="56" height="56">
<rect x="0.0189514" width="55.9621" height="55.9621" fill="#D9D9D9"/>
</mask>
<g mask="url(#mask0_2_54)">
<path d="M20.5384 25.5326L25.5517 20.4611L22.2872 17.1383L19.7223 19.7033L16.4578 16.4388L18.9645 13.8739L16.3412 11.2507L11.2697 16.3222L20.5384 25.5326ZM39.6588 44.7113L44.7303 39.6398L42.1071 37.0165L39.5422 39.5232L36.2777 36.2587L38.7844 33.6938L35.4616 30.4293L30.4483 35.4426L39.6588 44.7113ZM16.9242 48.9668H7.01422V39.0568L17.2156 28.8554L4.68246 16.3222L16.3412 4.66345L28.9327 17.2549L37.7351 8.39426C38.2014 7.92791 38.7261 7.57814 39.309 7.34497C39.8919 7.11179 40.4943 6.99521 41.1161 6.99521C41.7379 6.99521 42.3403 7.11179 42.9232 7.34497C43.5062 7.57814 44.0308 7.92791 44.4972 8.39426L47.5867 11.5421C48.0531 12.0085 48.4028 12.5331 48.636 13.1161C48.8692 13.699 48.9858 14.3014 48.9858 14.9232C48.9858 15.545 48.8692 16.1376 48.636 16.7011C48.4028 17.2646 48.0531 17.7796 47.5867 18.2459L38.7844 27.1066L51.3175 39.6398L39.6588 51.2985L27.1256 38.7653L16.9242 48.9668ZM11.6777 44.3033H14.9422L37.7934 21.5104L34.4706 18.1876L11.6777 41.0388V44.3033Z" fill="#EB0909"/>
</g>
</svg>
