<svg width="53" height="53" viewBox="0 0 53 53" fill="none" xmlns="http://www.w3.org/2000/svg">
<mask id="mask0_4_176" style="mask-type:alpha" maskUnits="userSpaceOnUse" x="0" y="0" width="53" height="53">
<rect width="52.9524" height="52.9524" fill="#D9D9D9"/>
</mask>
<g mask="url(#mask0_4_176)">
<path d="M35.8531 44.1271H38.0595V35.3017H35.8531V44.1271ZM41.369 44.1271H43.5754V35.3017H41.369V44.1271ZM13.2381 19.8572H39.7143V15.4445H13.2381V19.8572ZM39.7143 50.7461C36.6621 50.7461 34.0605 49.6705 31.9093 47.5193C29.7581 45.3681 28.6825 42.7665 28.6825 39.7144C28.6825 36.6623 29.7581 34.0606 31.9093 31.9094C34.0605 29.7582 36.6621 28.6826 39.7143 28.6826C42.7664 28.6826 45.368 29.7582 47.5192 31.9094C49.6704 34.0606 50.746 36.6623 50.746 39.7144C50.746 42.7665 49.6704 45.3681 47.5192 47.5193C45.368 49.6705 42.7664 50.7461 39.7143 50.7461ZM6.61902 48.5398V11.0318C6.61902 9.81835 7.0511 8.77952 7.91525 7.91537C8.7794 7.05122 9.81822 6.61914 11.0317 6.61914H41.9206C43.1341 6.61914 44.1729 7.05122 45.0371 7.91537C45.9012 8.77952 46.3333 9.81835 46.3333 11.0318V25.7592C45.6346 25.4283 44.9176 25.1525 44.1821 24.9318C43.4467 24.7112 42.6928 24.5457 41.9206 24.4354V11.0318H11.0317V42.031H24.4353C24.6192 43.171 24.9041 44.2558 25.2902 45.2854C25.6764 46.315 26.182 47.2895 26.8071 48.2088L26.4762 48.5398L23.1666 45.2303L19.8571 48.5398L16.5476 45.2303L13.2381 48.5398L9.92854 45.2303L6.61902 48.5398ZM13.2381 37.508H24.4353C24.5456 36.7358 24.7111 35.982 24.9317 35.2465C25.1524 34.5111 25.4281 33.794 25.7591 33.0953H13.2381V37.508ZM13.2381 28.6826H28.9031C30.3005 27.3221 31.9277 26.2465 33.7847 25.4558C35.6417 24.6652 37.6182 24.2699 39.7143 24.2699H13.2381V28.6826Z" fill="white"/>
</g>
</svg>
