<svg width="53" height="53" viewBox="0 0 53 53" fill="none" xmlns="http://www.w3.org/2000/svg">
<mask id="mask0_4_182" style="mask-type:alpha" maskUnits="userSpaceOnUse" x="0" y="0" width="53" height="53">
<rect width="52.9524" height="52.9524" fill="#D9D9D9"/>
</mask>
<g mask="url(#mask0_4_182)">
<path d="M15.4444 37.508H19.8571V22.0636H15.4444V37.508ZM24.2698 37.508H28.6825V15.4445H24.2698V37.508ZM33.0952 37.508H37.5079V28.6826H33.0952V37.508ZM11.0317 46.3334C9.81823 46.3334 8.7794 45.9014 7.91525 45.0372C7.0511 44.173 6.61902 43.1342 6.61902 41.9207V11.0318C6.61902 9.81835 7.0511 8.77952 7.91525 7.91537C8.7794 7.05122 9.81823 6.61914 11.0317 6.61914H41.9206C43.1341 6.61914 44.1729 7.05122 45.0371 7.91537C45.9012 8.77952 46.3333 9.81835 46.3333 11.0318V41.9207C46.3333 43.1342 45.9012 44.173 45.0371 45.0372C44.1729 45.9014 43.1341 46.3334 41.9206 46.3334H11.0317ZM11.0317 41.9207H41.9206V11.0318H11.0317V41.9207Z" fill="white"/>
</g>
</svg>
