<svg width="21" height="21" viewBox="0 0 21 21" fill="none" xmlns="http://www.w3.org/2000/svg">
<mask id="mask0_7_210" style="mask-type:alpha" maskUnits="userSpaceOnUse" x="0" y="0" width="21" height="21">
<rect width="21" height="21" fill="#D9D9D9"/>
</mask>
<g mask="url(#mask0_7_210)">
<path d="M16.625 10.5C16.625 8.79375 16.0307 7.34635 14.8422 6.15781C13.6536 4.96927 12.2063 4.375 10.5 4.375V2.625C11.5938 2.625 12.6182 2.83281 13.5734 3.24844C14.5286 3.66406 15.3599 4.22552 16.0672 4.93281C16.7745 5.6401 17.3359 6.47135 17.7516 7.42656C18.1672 8.38177 18.375 9.40625 18.375 10.5H16.625ZM13.125 10.5C13.125 9.77083 12.8698 9.15104 12.3594 8.64062C11.849 8.13021 11.2292 7.875 10.5 7.875V6.125C11.7104 6.125 12.7422 6.55156 13.5953 7.40469C14.4484 8.25781 14.875 9.28958 14.875 10.5H13.125ZM17.4563 18.375C15.6333 18.375 13.8323 17.9776 12.0531 17.1828C10.274 16.388 8.65521 15.2615 7.19688 13.8031C5.73854 12.3448 4.61198 10.726 3.81719 8.94688C3.0224 7.16771 2.625 5.36667 2.625 3.54375C2.625 3.28125 2.7125 3.0625 2.8875 2.8875C3.0625 2.7125 3.28125 2.625 3.54375 2.625H7.0875C7.29167 2.625 7.47396 2.69427 7.63438 2.83281C7.79479 2.97135 7.88958 3.13542 7.91875 3.325L8.4875 6.3875C8.51667 6.62083 8.50938 6.81771 8.46563 6.97813C8.42188 7.13854 8.34167 7.27708 8.225 7.39375L6.10313 9.5375C6.39479 10.0771 6.74115 10.5984 7.14219 11.1016C7.54323 11.6047 7.98438 12.0896 8.46563 12.5563C8.91771 13.0083 9.39167 13.4276 9.8875 13.8141C10.3833 14.2005 10.9083 14.5542 11.4625 14.875L13.5188 12.8188C13.65 12.6875 13.8214 12.5891 14.0328 12.5234C14.2443 12.4578 14.4521 12.4396 14.6562 12.4688L17.675 13.0813C17.8792 13.1396 18.0469 13.2453 18.1781 13.3984C18.3094 13.5516 18.375 13.7229 18.375 13.9125V17.4563C18.375 17.7188 18.2875 17.9375 18.1125 18.1125C17.9375 18.2875 17.7188 18.375 17.4563 18.375ZM5.27188 7.875L6.71563 6.43125L6.34375 4.375H4.39688C4.46979 4.97292 4.57187 5.56354 4.70312 6.14688C4.83437 6.73021 5.02396 7.30625 5.27188 7.875ZM13.1031 15.7063C13.6719 15.9542 14.2516 16.151 14.8422 16.2969C15.4328 16.4427 16.0271 16.5375 16.625 16.5813V14.6562L14.5688 14.2406L13.1031 15.7063Z" fill="white"/>
</g>
</svg>
