<svg width="53" height="53" viewBox="0 0 53 53" fill="none" xmlns="http://www.w3.org/2000/svg">
<mask id="mask0_4_200" style="mask-type:alpha" maskUnits="userSpaceOnUse" x="0" y="0" width="53" height="53">
<rect width="52.9524" height="52.9524" fill="#D9D9D9"/>
</mask>
<g mask="url(#mask0_4_200)">
<path d="M13.2381 48.5396C12.0246 48.5396 10.9858 48.1075 10.1216 47.2434C9.25747 46.3792 8.8254 45.3404 8.8254 44.1269V17.6507C8.8254 16.4372 9.25747 15.3984 10.1216 14.5342C10.9858 13.6701 12.0246 13.238 13.2381 13.238H17.6508C17.6508 10.811 18.5149 8.73337 20.2433 7.00506C21.9716 5.27675 24.0492 4.4126 26.4762 4.4126C28.9032 4.4126 30.9808 5.27675 32.7091 7.00506C34.4374 8.73337 35.3016 10.811 35.3016 13.238H39.7143C40.9278 13.238 41.9666 13.6701 42.8308 14.5342C43.6949 15.3984 44.127 16.4372 44.127 17.6507V44.1269C44.127 45.3404 43.6949 46.3792 42.8308 47.2434C41.9666 48.1075 40.9278 48.5396 39.7143 48.5396H13.2381ZM13.2381 44.1269H39.7143V17.6507H35.3016V22.0634C35.3016 22.6885 35.0901 23.2125 34.6673 23.6354C34.2444 24.0583 33.7204 24.2697 33.0952 24.2697C32.4701 24.2697 31.9461 24.0583 31.5232 23.6354C31.1003 23.2125 30.8889 22.6885 30.8889 22.0634V17.6507H22.0635V22.0634C22.0635 22.6885 21.8521 23.2125 21.4292 23.6354C21.0063 24.0583 20.4823 24.2697 19.8571 24.2697C19.232 24.2697 18.708 24.0583 18.2851 23.6354C17.8622 23.2125 17.6508 22.6885 17.6508 22.0634V17.6507H13.2381V44.1269ZM22.0635 13.238H30.8889C30.8889 12.0245 30.4568 10.9857 29.5927 10.1215C28.7285 9.25737 27.6897 8.8253 26.4762 8.8253C25.2627 8.8253 24.2239 9.25737 23.3597 10.1215C22.4956 10.9857 22.0635 12.0245 22.0635 13.238Z" fill="white"/>
</g>
</svg>
